<svg width="53" height="53" xmlns="http://www.w3.org/2000/svg" xmlns:xlink="http://www.w3.org/1999/xlink" xml:space="preserve" overflow="hidden"><g transform="translate(-16 -244)"><path d="M46.9167 271.88C46.9167 273.095 45.9229 274.089 44.7083 274.089L42.5 274.089C41.2854 274.089 40.2917 273.095 40.2917 271.88L40.2917 270.776 21.5208 270.776 21.5208 286.234C21.5208 287.449 22.5146 288.443 23.7292 288.443L63.4792 288.443C64.6937 288.443 65.6875 287.449 65.6875 286.234L65.6875 270.776 46.9167 270.776 46.9167 271.88Z" fill="#0D4B60"/><path d="M63.4792 257.526 52.4375 257.526 52.4375 253.938C52.4375 251.784 50.726 250.073 48.5729 250.073L38.6354 250.073C36.4823 250.073 34.7708 251.784 34.7708 253.938L34.7708 257.526 23.7292 257.526C22.5146 257.526 21.5208 258.52 21.5208 259.734L21.5208 268.568 40.2917 268.568 40.2917 267.464 46.9167 267.464 46.9167 268.568 65.6875 268.568 65.6875 259.734C65.6875 258.52 64.6937 257.526 63.4792 257.526M38.0833 257.526 38.0833 253.938C38.0833 253.606 38.3042 253.385 38.6354 253.385L48.5729 253.385C48.9042 253.385 49.125 253.606 49.125 253.938L49.125 257.526 38.0833 257.526Z" fill="#0D4B60"/></g></svg>