<svg width="53" height="54" xmlns="http://www.w3.org/2000/svg" xmlns:xlink="http://www.w3.org/1999/xlink" xml:space="preserve" overflow="hidden"><g transform="translate(-328 -546)"><path d="M46.9271 18.7708 19.599 18.7708 29.8125 16.5073C31.3031 16.176 32.2417 14.6854 31.9104 13.1948 31.5792 11.7042 30.0885 10.7656 28.5979 11.0969L13.6917 14.4094C13.1396 14.575 12.5875 14.9062 12.1458 15.4583L7.45312 21.5312 3.3125 21.5312 3.3125 37.5417 6.07292 37.5417C9.99271 37.5417 10.2688 41.9583 17.6667 41.9583 19.4333 41.9583 25.2854 41.9583 27.6042 41.9583 29.426 41.9583 30.9167 40.4677 30.9167 38.6458 30.9167 37.7625 30.5854 36.9896 30.0333 36.4375 30.1437 36.4375 30.2542 36.4375 30.3646 36.4375 32.1865 36.4375 33.6771 34.9469 33.6771 33.125 33.6771 32.2417 33.3458 31.4135 32.7385 30.8062 34.2292 30.475 35.3333 29.15 35.3333 27.6042 35.3333 25.7823 33.8427 24.2917 32.0208 24.2917L46.9271 24.2917C48.4729 24.2917 49.6875 23.0771 49.6875 21.5312 49.6875 19.9854 48.4729 18.7708 46.9271 18.7708Z" fill="#0D4B60" transform="matrix(1 0 0 1.01887 328 546)"/></g></svg>