<svg width="53" height="54" xmlns="http://www.w3.org/2000/svg" xmlns:xlink="http://www.w3.org/1999/xlink" xml:space="preserve" overflow="hidden"><g transform="translate(-16 -318)"><path d="M25.6719 3.86458 26.776 3.86458 26.776 6.625 25.6719 6.625Z" fill="#0D4B60" transform="matrix(1 0 0 1.01887 16 318)"/><path d="M29.5365 11.1052C29.5365 12.9346 28.0534 14.4177 26.224 14.4177 24.3945 14.4177 22.9115 12.9346 22.9115 11.1052 22.9115 9.27571 24.3945 7.79266 26.224 7.79266 28.0534 7.79266 29.5365 9.27571 29.5365 11.1052Z" fill="#0D4B60" transform="matrix(1 0 0 1.01887 16 318)"/><path d="M25.6719 15.5218 26.776 15.5218 26.776 18.2822 25.6719 18.2822Z" fill="#0D4B60" transform="matrix(1 0 0 1.01887 16 318)"/><path d="M20.9041 15.6383 21.6847 16.4372 23.601 14.4762 22.8204 13.6768 20.9041 15.6383Z" fill="#0D4B60" transform="matrix(1 0 0 1.01887 16 318)"/><path d="M31.5438 6.50851 30.7632 5.70965 28.8469 7.67065 29.6276 8.47006 31.5438 6.50851Z" fill="#0D4B60" transform="matrix(1 0 0 1.01887 16 318)"/><path d="M30.6406 10.4896 33.401 10.4896 33.401 11.5938 30.6406 11.5938Z" fill="#0D4B60" transform="matrix(1 0 0 1.01887 16 318)"/><path d="M28.8469 14.4762 30.7632 16.4372 31.5438 15.6383 29.6276 13.6768 28.8469 14.4762Z" fill="#0D4B60" transform="matrix(1 0 0 1.01887 16 318)"/><path d="M23.601 7.67065 21.6847 5.70965 20.9041 6.50851 22.8204 8.47006 23.601 7.67065Z" fill="#0D4B60" transform="matrix(1 0 0 1.01887 16 318)"/><path d="M19.7094 48.1279 18.7416 48.6468 32.0893 48.6468 32.1373 48.6286C37.9224 46.4049 43.9081 44.7431 50.0116 43.6665L50.2396 43.6262 50.2396 37.9397 49.9205 37.99C39.3509 39.6433 29.1367 43.0708 19.7094 48.1279Z" fill="#0D4B60" transform="matrix(1 0 0 1.01887 16 318)"/><path d="M36.888 48.1085 35.2544 48.6468 50.2396 48.6468 50.2396 44.7475 49.915 44.8027C45.5005 45.5979 41.1475 46.7026 36.888 48.1085Z" fill="#0D4B60" transform="matrix(1 0 0 1.01887 16 318)"/><path d="M49.9271 31.0409C47.6238 31.3473 45.3354 31.7487 43.0625 32.2218L43.0625 29.2604C43.7156 29.2455 45.0141 29.118 45.7826 28.3771 46.8399 27.3612 46.635 25.4334 46.635 25.4334 46.635 25.4334 44.7188 25.1573 43.6604 26.1737 43.4029 26.4313 43.1996 26.7379 43.0625 27.0753L43.0625 26.2897C43.6459 25.7168 44.002 24.9518 44.0645 24.1365 44.0645 22.6702 42.5331 21.2778 42.5331 21.2778 42.5331 21.2778 41.0016 22.6702 41.0016 24.136 41.0589 24.9295 41.3983 25.6765 41.9583 26.2416L41.9583 26.2416 41.9583 27.0753C41.8212 26.7379 41.6179 26.4313 41.3604 26.1737 40.3037 25.1573 38.3858 25.4378 38.3858 25.4378 38.3858 25.4378 38.181 27.3657 39.2382 28.3815 40.0067 29.1202 41.3052 29.2477 41.9583 29.2604L41.9583 32.4537C29.2447 35.2578 17.226 40.594 6.61948 48.1439L5.91723 48.6446 16.5117 48.6446 16.5758 48.6076C26.8933 42.6516 38.2298 38.6691 50.0055 36.8637L50.2396 36.8278 50.2396 30.9995Z" fill="#0D4B60" transform="matrix(1 0 0 1.01887 16 318)"/><path d="M19.0469 10.4896 21.8073 10.4896 21.8073 11.5938 19.0469 11.5938Z" fill="#0D4B60" transform="matrix(1 0 0 1.01887 16 318)"/><path d="M7.43656 45.5287 6.73818 45.4304C5.53795 45.2614 4.26264 45.1129 2.76318 44.9655L2.76318 48.6468 3.16123 48.6468 3.23521 48.5916C4.6375 47.5189 5.78915 46.6737 6.85908 45.9322Z" fill="#0D4B60" transform="matrix(1 0 0 1.01887 16 318)"/><path d="M16.7215 39.9222 16.8165 39.872C18.8636 38.7883 20.9692 37.768 23.0754 36.8389L23.7258 36.5523 23.0528 36.3271C16.4693 34.1086 9.66587 32.6062 2.76042 31.8458L2.76042 37.3512C7.43452 37.8661 12.0656 38.7163 16.6177 39.8952Z" fill="#0D4B60" transform="matrix(1 0 0 1.01887 16 318)"/><path d="M12.1458 23.5049 12.1458 26.5243C9.04903 25.906 5.92054 25.4409 2.76042 25.1292L2.76042 30.7372C10.3898 31.5717 17.8945 33.3007 25.1198 35.8887L25.2197 35.9246 25.318 35.8854C27.5512 34.9667 29.8451 34.1187 32.1406 33.3723L32.8263 33.1487 32.1638 32.8578C26.0869 30.1757 19.7485 28.1304 13.25 26.7545L13.25 23.5049C13.9031 23.49 15.2016 23.3631 15.9701 22.6216 17.0274 21.6058 16.8225 19.6785 16.8225 19.6785 16.8225 19.6785 14.9062 19.4002 13.8479 20.416 13.5906 20.6738 13.3872 20.9803 13.25 21.3176L13.25 20.532C13.8336 19.9592 14.1896 19.1942 14.252 18.3789 14.252 16.9131 12.7206 15.5202 12.7206 15.5202 12.7206 15.5202 11.1891 16.9131 11.1891 18.3789 11.2469 19.1716 11.5863 19.9177 12.1458 20.4823L12.1458 20.4823 12.1458 21.3154C12.0086 20.9781 11.8053 20.6715 11.5479 20.4138 10.4912 19.398 8.5733 19.6785 8.5733 19.6785 8.5733 19.6785 8.36848 21.6058 9.42572 22.6216 10.1942 23.3631 11.4927 23.49 12.1458 23.5049Z" fill="#0D4B60" transform="matrix(1 0 0 1.01887 16 318)"/><path d="M8.77812 44.6299 8.86756 44.5713C10.7529 43.3325 12.7123 42.1422 14.6898 41.0308L15.3049 40.6858 14.6192 40.5202C10.7127 39.589 6.75214 38.9014 2.76042 38.4614L2.76042 43.8525C4.73577 44.0474 6.72327 44.3003 8.67433 44.6127Z" fill="#0D4B60" transform="matrix(1 0 0 1.01887 16 318)"/></g></svg>