<svg width="53" height="54" xmlns="http://www.w3.org/2000/svg" xmlns:xlink="http://www.w3.org/1999/xlink" xml:space="preserve" overflow="hidden"><g transform="translate(-16 -95)"><path d="M34.6708 33.8427C34.9469 33.2906 34.7812 32.6281 34.2292 32.3521 33.6771 32.076 33.0146 32.2417 32.7385 32.7938L30.5302 36.7135 32.0208 30.8062C32.1865 30.199 31.8 29.5917 31.1927 29.4812 30.5854 29.3156 29.9781 29.7021 29.8677 30.3094L28.5979 35.3885 28.5979 29.8677C28.5979 29.2604 28.101 28.7635 27.4937 28.7635 26.8865 28.7635 26.3896 29.2604 26.3896 29.8677L26.3896 35.775 25.1198 30.3094C25.0094 29.7021 24.4021 29.3708 23.7948 29.4812 23.1875 29.5917 22.8563 30.199 22.9667 30.8062L24.5125 37.376C24.4573 38.149 24.2917 38.9219 24.126 39.5844 24.126 39.5844 24.126 39.5292 24.0708 39.5292 23.1323 38.0938 21.6417 36.824 20.2062 36.4375 19.6542 36.2719 19.1021 36.6031 18.9365 37.1552 18.7708 37.7073 19.1021 38.2594 19.6542 38.425 20.3719 38.5906 21.0344 39.6396 21.7521 40.7438 22.6354 42.124 23.7396 43.725 25.3958 44.6635L25.3958 50.5708 30.2542 50.5708 30.2542 44.3323C32.076 43.3937 32.2969 39.474 32.3521 37.9833L34.6708 33.8427Z" fill="#0D4B60" transform="matrix(1 0 0 1.01887 16 95)"/><path d="M15.1823 34.2844 19.9854 34.3396C19.9854 34.3396 19.9854 34.3396 19.9854 34.3396 20.5927 34.3396 21.0896 33.8427 21.0896 33.2354 21.0896 32.6281 20.5927 32.1312 19.9854 32.1312L15.5135 32.076 21.3656 30.5854C21.9729 30.4198 22.3042 29.8125 22.1385 29.2604 21.9729 28.6531 21.3656 28.3219 20.8135 28.4875L15.7344 29.8125 20.5927 27.1625C21.1448 26.8865 21.3104 26.224 21.0344 25.6719 20.7583 25.1198 20.0958 24.9542 19.5438 25.2302L14.3542 27.9906 18.55 24.2917C18.9917 23.9052 19.0469 23.1875 18.6604 22.7458 18.274 22.3042 17.5562 22.249 17.1146 22.6354L12.0354 27.0521C11.3177 27.3833 10.6 27.6042 9.88229 27.7146 9.88229 27.7146 9.88229 27.6594 9.9375 27.6594 10.7656 26.1135 11.1521 24.2365 10.8208 22.801 10.7104 22.249 10.1031 21.9177 9.55104 22.0281 8.99896 22.1385 8.66771 22.7458 8.77812 23.2979 8.94375 24.0156 8.39167 25.0646 7.78437 26.224 7.01146 27.6594 6.12813 29.3708 6.07292 31.3031L0.883333 34.1187 3.20208 38.3698 8.66771 35.4437C10.324 36.6031 13.8573 34.9469 15.1823 34.2844Z" fill="#0D4B60" transform="matrix(1 0 0 1.01887 16 95)"/><path d="M15.7896 16.2865 16.949 20.924C17.0594 21.4208 17.501 21.7521 17.9979 21.7521 18.1083 21.7521 18.1635 21.7521 18.274 21.6969 18.8813 21.5312 19.2125 20.9792 19.1021 20.3719L18.0531 16.0104 20.9792 21.2552C21.2 21.6417 21.5312 21.8073 21.9729 21.8073 22.1385 21.8073 22.3594 21.7521 22.525 21.6417 23.0771 21.3656 23.2427 20.6479 22.9667 20.151L20.4271 15.5687 24.1812 19.599C24.4021 19.8198 24.6781 19.9302 25.0094 19.9302 25.2854 19.9302 25.5615 19.8198 25.7823 19.6542 26.224 19.2125 26.224 18.55 25.8375 18.1083L21.8073 13.8021 26.5 16.949C26.6656 17.0594 26.8865 17.1146 27.1073 17.1146 27.4385 17.1146 27.825 16.949 28.0458 16.6177 28.3771 16.1208 28.2667 15.4031 27.7698 15.0719L22.1385 11.3177C21.6417 10.7104 21.2552 10.0479 20.924 9.44063 20.924 9.44063 20.9792 9.44063 20.9792 9.44063 22.6354 9.82708 24.5677 9.77188 25.8927 9.05417 26.3896 8.77812 26.5552 8.17083 26.2792 7.67396 26.0031 7.17708 25.3958 7.01146 24.899 7.2875 24.2917 7.61875 23.0771 7.34271 21.8073 7.06667 20.2062 6.68021 18.3292 6.23854 16.4521 6.73542L12.4219 2.42917 8.88854 5.74167 13.1396 10.2688C12.2563 12.201 14.7406 15.2375 15.7896 16.2865Z" fill="#0D4B60" transform="matrix(1 0 0 1.01887 16 95)"/><path d="M52.1167 37.9833 47.9208 33.401C48.6385 31.4687 46.1542 28.4323 45.1604 27.3281L44.0563 22.6906C43.8906 22.0833 43.3385 21.7521 42.7313 21.8625 42.124 22.0281 41.7927 22.5802 41.9031 23.1875L42.9521 27.549 40.026 22.249C39.75 21.6969 39.0875 21.5312 38.5354 21.8073 37.9833 22.0833 37.8177 22.7458 38.0938 23.2979L40.6333 27.9354 36.8792 23.9052C36.4375 23.4635 35.775 23.4083 35.3333 23.85 34.8917 24.2917 34.8365 24.9542 35.2781 25.3958L39.3083 29.7573 34.6708 26.6104C34.174 26.2792 33.4562 26.3896 33.125 26.8865 32.7938 27.3833 32.9042 28.101 33.401 28.4323L38.9771 32.2417C39.474 32.849 39.8604 33.5115 40.1917 34.1187 40.1917 34.1187 40.1365 34.1187 40.1365 34.1187 38.4802 33.7323 36.5479 33.7875 35.2229 34.5052 34.726 34.7812 34.5052 35.3885 34.7812 35.8854 35.0573 36.3823 35.6646 36.6031 36.1615 36.3271 36.7687 35.9958 37.9833 36.2719 39.2531 36.6031 40.8542 36.9896 42.7313 37.4313 44.6083 36.9896L48.5833 41.2958 52.1167 37.9833Z" fill="#0D4B60" transform="matrix(1 0 0 1.01887 16 95)"/><path d="M29.426 14.3542C29.5365 14.3542 29.6469 14.3542 29.8125 14.299L34.0083 12.8083 29.0396 16.2312C28.5427 16.5625 28.4323 17.2802 28.7635 17.7771 28.9844 18.1083 29.3156 18.274 29.6469 18.274 29.8677 18.274 30.0885 18.2188 30.2542 18.0531L34.5604 15.0719 30.9167 19.2125C30.5302 19.6542 30.5854 20.3719 31.0271 20.7583 31.2479 20.924 31.4687 21.0344 31.7448 21.0344 32.076 21.0344 32.3521 20.924 32.5729 20.6479L36.4927 16.176 33.8427 21.1448C33.5667 21.6969 33.7323 22.3594 34.2844 22.6354 34.45 22.7458 34.6156 22.7458 34.7812 22.7458 35.1677 22.7458 35.5542 22.525 35.775 22.1385L38.9771 16.176C39.5292 15.624 40.1365 15.1823 40.7438 14.7958 40.7438 14.7958 40.7438 14.851 40.7438 14.851 40.5229 16.5625 40.799 18.4948 41.6271 19.7094 41.9583 20.2062 42.5656 20.3167 43.0625 19.9854 43.5594 19.6542 43.6698 19.0469 43.3385 18.55 42.9521 17.9427 43.1177 16.7281 43.2833 15.4031 43.5042 13.8021 43.725 11.8698 43.1177 10.0479L46.9823 5.63125 43.3385 2.42917 39.2531 7.12187C37.2656 6.625 34.5052 9.44063 33.5115 10.4896L28.9844 12.0906C28.4323 12.3115 28.101 12.9187 28.3219 13.526 28.5427 14.0781 28.9844 14.3542 29.426 14.3542Z" fill="#0D4B60" transform="matrix(1 0 0 1.01887 16 95)"/></g></svg>