<svg width="166" height="49" xmlns="http://www.w3.org/2000/svg" xmlns:xlink="http://www.w3.org/1999/xlink" xml:space="preserve" overflow="hidden"><g transform="translate(-34 -79)"><path d="M0 33.2677 0 32.4185C0 22.5929 6.85368 16.9523 15.5876 16.9523 24.3215 16.9523 29.2343 21.9257 30.508 28.5975L23.1084 30.1744C22.6232 26.5353 20.3791 23.7453 15.7695 23.7453 11.16 23.7453 7.64216 26.8385 7.64216 32.5398L7.64216 33.1464C7.64216 38.8477 11.16 41.9409 15.7695 41.9409 20.3791 41.9409 22.6232 39.3329 23.2904 35.4511L30.69 37.2101C29.113 43.6998 24.2002 48.7339 15.5876 48.7339 6.97499 48.7339 0 43.0933 0 33.2677Z" fill="#0F4B60" transform="matrix(1 0 0 1.00546 34.4449 79)"></path><path d="M33.116 33.3283 33.116 32.3579C33.116 22.6536 39.9091 16.9523 48.8856 16.9523 57.8621 16.9523 64.6551 22.6536 64.6551 32.3579L64.6551 33.3283C64.6551 43.0326 57.8621 48.7339 48.8856 48.7339 39.9091 48.7339 33.116 43.0326 33.116 33.3283ZM57.013 33.1464 57.013 32.5398C57.013 26.8992 53.6164 23.7453 48.8856 23.7453 44.1547 23.7453 40.7582 26.8992 40.7582 32.5398L40.7582 33.1464C40.7582 38.787 44.2154 41.9409 48.8856 41.9409 53.5558 41.9409 57.013 38.787 57.013 33.1464Z" fill="#0F4B60" transform="matrix(1 0 0 1.00546 34.4449 79)"></path><path d="M67.3238 39.0903C67.3238 32.9038 72.176 29.6892 78.969 29.6892L87.2177 29.6892 87.2177 27.9909C87.2177 25.2009 85.5194 23.1388 81.6377 23.1388 77.756 23.1388 76.1184 25.0796 75.5725 27.809L68.5368 25.4435C69.9925 20.8946 73.9349 16.9523 81.759 16.9523 89.5831 16.9523 94.6172 21.0159 94.6172 28.5368L94.6172 39.7574C94.6172 40.9705 95.2238 41.577 96.3155 41.577L98.7416 41.577 98.7416 47.8848 93.6468 47.8848C90.6749 47.8848 88.4914 46.3079 88.4914 43.8818L88.4914 43.8211 87.339 43.8211C86.7931 45.3374 84.9129 48.7339 78.6051 48.7339 72.2973 48.7339 67.3238 45.2768 67.3238 39.0903ZM87.2177 35.997 87.2177 35.3905 79.5149 35.3905C76.6642 35.3905 74.966 36.6642 74.966 38.8477 74.966 41.0311 76.6642 42.5474 79.9394 42.5474 84.1851 42.5474 87.2177 40 87.2177 35.997Z" fill="#0F4B60" transform="matrix(1 0 0 1.00546 34.4449 79)"></path><path d="M100.46 38.9083 107.496 37.0887C108.284 41.3344 111.135 42.6687 114.653 42.6687 118.17 42.6687 119.869 41.2737 119.869 39.3935 119.869 37.5133 118.352 36.6642 114.774 35.997L113.076 35.6937C106.768 34.5414 101.552 32.1759 101.552 26.232 101.552 20.2881 106.283 16.9523 113.44 16.9523 120.172 16.9523 124.782 20.2275 126.177 25.0796L119.08 27.2631C118.413 24.1699 116.351 23.0175 113.44 23.0175 110.528 23.0175 108.951 24.1092 108.951 25.8681 108.951 27.809 110.65 28.5975 113.44 29.0827L115.138 29.3859C121.931 30.599 127.268 32.5398 127.268 38.8477 127.268 45.1555 122.295 48.7339 114.653 48.7339 107.01 48.7339 101.491 45.2161 100.46 38.9083Z" fill="#0F4B60" transform="matrix(1 0 0 1.00546 34.4449 79)"></path><path d="M142.431 47.8848C138.428 47.8848 135.76 45.2161 135.76 41.0918L135.76 24.1092 128.239 24.1092 128.239 17.8014 135.76 17.8014 135.76 8.9664 143.402 8.9664 143.402 17.8014 151.65 17.8014 151.65 24.1092 143.402 24.1092 143.402 39.7574C143.402 40.9705 144.008 41.577 145.1 41.577L150.923 41.577 150.923 47.8848 142.431 47.8848Z" fill="#0F4B60" transform="matrix(1 0 0 1.00546 34.4449 79)"></path><path d="M165.11 0 164.034 0 154.804 4.43266 154.804 8.90069 164.034 13.3333 165.11 13.3333 165.11 8.77433 160.076 6.66667 165.11 4.55901 165.11 0Z" fill="#D8EC29" transform="matrix(1 0 0 1.00546 34.4449 79)"></path><path d="M156.103 47.8848 156.103 17.8014 163.745 17.8014 163.745 41.6932C163.745 45.115 160.976 47.8848 157.554 47.8848L156.103 47.8848Z" fill="#D8EC29" transform="matrix(1 0 0 1.00546 34.4449 79)"></path></g></svg>